# xmcd CD database file
#
# Track frame offsets:
#	150
#	22727
#	43101
#	58036
#	74173
#	99237
#	114308
#	135948
#	155405
#	186771
#	202369
#	215684
#	233861
#	252312
#
# Disc length: 3620 seconds
#
# Revision: 0
# Processed by: cddbd v1.5.1PL0 Copyright (c) Steve Scherf et al.
# Submitted via: CDex 1.51
#
DISCID=c90e220e
DTITLE=Mark Hummel - Harmonica Party
DYEAR=1999
DGENRE=Blues
TTITLE0=Humble Bug
TTITLE1=Woman Wanted
TTITLE2=You Got Me Wrong
TTITLE3=7 Nights To Rock
TTITLE4=City Livin
TTITLE5=Act Like You Like Me
TTITLE6=Hand Jive
TTITLE7=Harmonica Party
TTITLE8=Black Night
TTITLE9=I Got To Find My Baby
TTITLE10=Upside Your Head
TTITLE11=Backscratcher
TTITLE12=Hung Down Head
TTITLE13=Big Leg Mama
EXTD=YEAR: 1999
EXTT0=
EXTT1=
EXTT2=
EXTT3=
EXTT4=
EXTT5=
EXTT6=
EXTT7=
EXTT8=
EXTT9=
EXTT10=
EXTT11=
EXTT12=
EXTT13=
PLAYORDER=
